<svg width="15" height="19" viewBox="0 0 15 19" fill="none" xmlns="http://www.w3.org/2000/svg">
<path fill-rule="evenodd" clip-rule="evenodd" d="M7.52675 0.965365C5.09964 0.962961 3.11259 2.78509 3.0696 5.02958C3.06601 5.05275 3.06479 5.07593 3.06476 5.0991L3.0641 5.68144C3.06399 5.77018 2.99462 5.84299 2.90593 5.84589L2.9059 5.84589L2.90588 5.84589C2.81472 5.84886 2.72272 5.85186 2.64432 5.8601C1.94653 5.93224 1.33184 6.09054 0.878502 6.51053C0.423975 6.93052 0.252162 7.50086 0.171781 8.14964C0.0959206 8.77112 0.0951729 9.51722 0.0942012 10.4868L0.0940655 10.6159L0.0902214 13.9617C0.0854277 13.9959 0.0830112 14.0301 0.0829719 14.0644L0.0828678 14.1516C0.0816653 15.1416 0.0807439 15.9002 0.157397 16.5308C0.235099 17.1797 0.405602 17.7493 0.859163 18.1702C1.31153 18.5922 1.92586 18.7506 2.62348 18.8241C3.30218 18.8955 4.11774 18.8963 5.18225 18.8973L5.18229 18.8973L5.27753 18.8973L5.28466 18.8974L9.73477 18.9018C9.74175 18.9018 9.74874 18.9015 9.75587 18.9012C9.76329 18.901 9.77086 18.9007 9.77874 18.9007L9.82742 18.9007C10.8901 18.9018 11.711 18.9026 12.389 18.8327C13.0868 18.7605 13.7003 18.6033 14.1548 18.1822C14.6093 17.7623 14.7811 17.193 14.8603 16.5442C14.9383 15.9061 14.9392 15.1351 14.9404 14.1278L14.9404 14.1278L14.9404 14.0824L14.9404 14.078L14.9444 10.6339L14.9444 10.6328L14.9444 10.6306L14.9445 10.5434C14.9457 9.55335 14.9466 8.79474 14.87 8.1642C14.7923 7.51526 14.6217 6.94458 14.1682 6.52369C13.7146 6.1028 13.1015 5.94329 12.4039 5.86977C12.3266 5.86164 12.2365 5.85799 12.1471 5.85436C12.0522 5.85051 11.9785 5.77225 11.9786 5.67723L11.9792 5.10793C11.9793 5.08255 11.9781 5.05606 11.9746 5.03068C11.932 2.78941 9.9503 0.967765 7.52675 0.965365ZM7.52507 2.34468C9.17365 2.34631 10.4951 3.57693 10.4934 5.10639L10.493 5.47621C10.4928 5.65592 10.3469 5.8012 10.1672 5.79969L10.167 5.79969L10.1669 5.79969C10.0521 5.79873 9.93398 5.79774 9.80202 5.79761L9.79888 5.79741L9.79886 5.79741C9.78221 5.79636 9.7665 5.79536 9.74973 5.79535L5.29962 5.79094C5.28639 5.79093 5.27315 5.79187 5.25896 5.79287L5.25895 5.79287L5.25564 5.7931C5.12055 5.79297 4.99959 5.79373 4.88212 5.79446L4.88208 5.79446L4.88188 5.79446C4.69838 5.79561 4.54979 5.64695 4.55 5.46345L4.55041 5.10051C4.55217 3.57105 5.87649 2.34305 7.52507 2.34468ZM9.69562 7.17498L5.33547 7.17067C5.33495 7.17066 5.33445 7.17086 5.33406 7.17122C5.33368 7.17157 5.33318 7.17177 5.33266 7.17177C5.32699 7.17179 5.32131 7.17204 5.31564 7.1723C5.3097 7.17257 5.30375 7.17284 5.29781 7.17283C4.18647 7.17173 3.36277 7.17533 2.80882 7.23217C2.25487 7.289 2.03248 7.3903 1.92659 7.48731C1.82188 7.58431 1.71229 7.79166 1.6487 8.30583C1.58631 8.82001 1.58067 9.58473 1.57949 10.6176L1.57552 14.0661C1.57545 14.1309 1.56943 14.1958 1.56938 14.2606C1.56867 15.1892 1.57426 15.898 1.6323 16.3769C1.6947 16.8923 1.80382 17.0987 1.9083 17.1971C2.01397 17.2943 2.23613 17.3949 2.78994 17.4539C3.34376 17.5119 4.16746 17.5171 5.27879 17.5182L5.28592 17.5182L9.69799 17.5226C9.70134 17.5223 9.70461 17.5221 9.70784 17.5219C9.71723 17.5214 9.7263 17.5212 9.73603 17.5204C10.8462 17.5215 11.6699 17.5201 12.2238 17.4633C12.7778 17.4053 13.0014 17.304 13.1073 17.2059C13.212 17.1089 13.3215 16.9016 13.3851 16.3874C13.4475 15.8743 13.4532 15.1107 13.4543 14.0811L13.4583 10.6327L13.4583 10.6305L13.4583 10.6294C13.4595 9.5965 13.4556 8.83176 13.3944 8.31747C13.332 7.80317 13.2229 7.5956 13.1184 7.49839C13.0127 7.40007 12.7894 7.29943 12.2356 7.2415C11.6818 7.18357 10.8581 7.17834 9.74791 7.17724C9.73114 7.17722 9.71541 7.17623 9.69876 7.17518L9.69562 7.17498Z" fill="#FA7CA5"/>
<path fill-rule="evenodd" clip-rule="evenodd" d="M7.51876 9.93116C7.12415 9.93077 6.74601 10.0761 6.46639 10.334C6.18677 10.5931 6.02947 10.9449 6.02905 11.3113C6.02877 11.554 6.09744 11.7925 6.22794 12.0023C6.47414 12.3945 6.7726 12.7971 6.77206 13.2602L6.77113 14.0708C6.76984 14.1624 6.78756 14.2529 6.82431 14.3379C6.86106 14.4229 6.91565 14.5002 6.98451 14.5654C7.05338 14.6305 7.13652 14.6825 7.22681 14.7179C7.31829 14.7533 7.41574 14.771 7.5132 14.7711C7.61185 14.7712 7.70934 14.7537 7.8009 14.7185C7.89128 14.6832 7.97335 14.6315 8.04236 14.5664C8.11256 14.5014 8.16614 14.4242 8.20308 14.3392C8.24003 14.2543 8.25915 14.1638 8.25688 14.0723L8.25781 13.2608C8.25834 12.7977 8.55934 12.3964 8.80482 12.0037C8.93581 11.7942 9.00502 11.557 9.00648 11.3142C9.00691 10.9479 8.85041 10.5957 8.57139 10.3361C8.29237 10.0776 7.91456 9.93155 7.51876 9.93116Z" fill="#FFD1E2"/>
</svg>
