<svg width="12" height="10" viewBox="0 0 12 10" fill="none" xmlns="http://www.w3.org/2000/svg">
<path fill-rule="evenodd" clip-rule="evenodd" d="M5.1695 0.778885L5.13278 0.778845C3.97494 0.777603 3.09856 0.776663 2.41156 0.83794C1.88004 0.884704 1.44766 0.968238 1.09689 1.14452C1.05148 1.16047 1.00955 1.18376 0.973203 1.21372C0.911707 1.25032 0.851605 1.29025 0.795687 1.33486C0.402169 1.64775 0.220093 2.11553 0.139172 2.68542C0.0602694 3.24108 0.0595746 3.92866 0.0586649 4.82903L0.0585933 4.89854L0.0585166 4.96806C0.0575055 5.86842 0.0567334 6.556 0.13445 7.11184C0.214155 7.68189 0.394535 8.15006 0.788083 8.46379C1.18163 8.77753 1.70807 8.90142 2.40289 8.96416C3.08276 9.02626 3.94829 9.02716 5.08867 9.02835L5.0887 9.02835L5.1607 9.02843L5.94637 9.02927L6.01841 9.02934L6.01844 9.02934C7.15944 9.03059 8.02432 9.03153 8.70501 8.97088C9.39926 8.90962 9.92666 8.78686 10.3209 8.47396C10.7144 8.16107 10.8965 7.69329 10.9774 7.1234C11.0563 6.56773 11.057 5.88014 11.0579 4.97976L11.058 4.91028L11.058 4.84079C11.0591 3.94041 11.0598 3.25282 10.9821 2.69698C10.9024 2.12693 10.7213 1.65876 10.3285 1.34502C10.2775 1.30431 10.2238 1.26692 10.1687 1.23286C10.1247 1.19215 10.071 1.16276 10.0123 1.14536C9.66472 0.97367 9.23671 0.891884 8.71368 0.844662C8.02611 0.781919 7.15041 0.780991 5.9919 0.779762L5.95517 0.779723L5.1695 0.778885ZM5.16873 1.5289L5.9544 1.52974C7.13046 1.531 8.00901 1.53393 8.63888 1.59127C8.81136 1.60745 8.9587 1.62761 9.09276 1.65108C8.59091 2.04453 7.37682 2.99518 6.30811 3.83199C5.87056 4.17484 5.24762 4.17418 4.8108 3.8304C3.74388 2.9913 2.53182 2.03806 2.03081 1.64355C2.16422 1.62036 2.3123 1.60052 2.48412 1.5847C3.11481 1.52871 3.99267 1.52765 5.16873 1.5289ZM2.56019 3.03202C1.90858 2.51943 1.36986 2.09565 1.22729 1.98332C1.07488 2.13981 0.977563 2.36836 0.917756 2.78627C0.848799 3.27018 0.845264 3.9648 0.844267 4.89941C0.84327 5.83403 0.845322 6.52933 0.913247 7.01271C0.981172 7.49609 1.09545 7.7322 1.29223 7.88906C1.489 8.04593 1.84715 8.16031 2.47702 8.21764C3.10759 8.27498 3.98544 8.27792 5.1615 8.27917L5.94717 8.28001C7.12323 8.28126 8.00179 8.2802 8.63248 8.22421C9.26247 8.16822 9.62086 8.05461 9.81797 7.89816C10.0151 7.74171 10.1299 7.50585 10.1988 7.02261C10.2678 6.53938 10.2713 5.84409 10.2723 4.90947C10.2733 3.97486 10.2706 3.28023 10.2033 2.79618C10.1444 2.37814 10.0469 2.14938 9.8955 1.99256C9.75272 2.10457 9.21327 2.52707 8.56073 3.03813C7.99937 3.47779 7.35431 3.983 6.80611 4.41247C6.08269 4.979 5.03373 4.97788 4.31152 4.40981C3.76435 3.97926 3.12053 3.47281 2.56019 3.03202Z" fill="#A4DC02"/>
</svg>
